<svg xmlns="http://www.w3.org/2000/svg" viewBox="0 0 129 129" width="129" height="129"
  preserveAspectRatio="xMidYMid meet"
  style="width: 100%; height: 100%; transform: translate3d(0px, 0px, 0px);">
  <defs>
    <clipPath id="__lottie_element_2">
      <rect width="129" height="129" x="0" y="0"></rect>
    </clipPath>
    <linearGradient id="__lottie_element_6" spreadMethod="pad" gradientUnits="userSpaceOnUse"
      x1="-100.47197723388672" y1="0.07415206730365753" x2="-50.81704330444336"
      y2="0.08538509160280228">
      <stop offset="0%" stop-color="rgb(226,231,248)" stop-opacity="0"></stop>
      <stop offset="25%" stop-color="rgb(201,214,252)" stop-opacity="0.5"></stop>
      <stop offset="50%" stop-color="rgb(177,197,255)" stop-opacity="1"></stop>
      <stop offset="75%" stop-color="rgb(177,197,255)" stop-opacity="0.5"></stop>
      <stop offset="100%" stop-color="rgb(177,197,255)" stop-opacity="0"></stop>
    </linearGradient>
    <linearGradient id="__lottie_element_10" spreadMethod="pad" gradientUnits="userSpaceOnUse"
      x1="28.02239227294922" y1="16.60320281982422" x2="98.26534271240234" y2="28.95928382873535">
      <stop offset="0%" stop-color="rgb(226,231,248)" stop-opacity="0"></stop>
      <stop offset="25%" stop-color="rgb(201,214,252)" stop-opacity="0.5"></stop>
      <stop offset="50%" stop-color="rgb(177,197,255)" stop-opacity="1"></stop>
      <stop offset="75%" stop-color="rgb(177,197,255)" stop-opacity="0.5"></stop>
      <stop offset="100%" stop-color="rgb(177,197,255)" stop-opacity="0"></stop>
    </linearGradient>
    <linearGradient id="__lottie_element_14" spreadMethod="pad" gradientUnits="userSpaceOnUse"
      x1="-64.05400085449219" y1="0.18099774420261383" x2="64.8759994506836"
      y2="-0.18499906361103058">
      <stop offset="5%" stop-color="rgb(68,110,255)"></stop>
      <stop offset="28%" stop-color="rgb(57,130,255)"></stop>
      <stop offset="50%" stop-color="rgb(46,150,255)"></stop>
      <stop offset="72%" stop-color="rgb(111,173,255)"></stop>
      <stop offset="95%" stop-color="rgb(177,197,255)"></stop>
    </linearGradient>
    <linearGradient id="__lottie_element_18" spreadMethod="pad" gradientUnits="userSpaceOnUse"
      x1="-64.05400085449219" y1="0.1809999942779541" x2="64.8759994506836" y2="-0.1850000023841858">
      <stop offset="5%" stop-color="rgb(68,110,255)"></stop>
      <stop offset="28%" stop-color="rgb(57,130,255)"></stop>
      <stop offset="50%" stop-color="rgb(46,150,255)"></stop>
      <stop offset="72%" stop-color="rgb(111,173,255)"></stop>
      <stop offset="95%" stop-color="rgb(177,197,255)"></stop>
    </linearGradient>
    <linearGradient id="__lottie_element_19" spreadMethod="pad" gradientUnits="userSpaceOnUse"
      x1="-112.59400177001953" y1="0.1809999942779541" x2="16.85300064086914"
      y2="-0.1850000023841858">
      <stop offset="5%" stop-color="rgb(68,110,255)"></stop>
      <stop offset="28%" stop-color="rgb(57,130,255)"></stop>
      <stop offset="50%" stop-color="rgb(46,150,255)"></stop>
      <stop offset="72%" stop-color="rgb(111,173,255)"></stop>
      <stop offset="95%" stop-color="rgb(177,197,255)"></stop>
    </linearGradient>
    <linearGradient id="__lottie_element_23" spreadMethod="pad" gradientUnits="userSpaceOnUse"
      x1="-64.05400085449219" y1="0.1809999942779541" x2="64.67400360107422"
      y2="-0.24300000071525574">
      <stop offset="5%" stop-color="rgb(68,110,255)"></stop>
      <stop offset="28%" stop-color="rgb(57,130,255)"></stop>
      <stop offset="50%" stop-color="rgb(46,150,255)"></stop>
      <stop offset="72%" stop-color="rgb(111,173,255)"></stop>
      <stop offset="95%" stop-color="rgb(177,197,255)"></stop>
    </linearGradient>
    <linearGradient id="__lottie_element_27" spreadMethod="pad" gradientUnits="userSpaceOnUse"
      x1="-64.05400085449219" y1="0.1809999942779541" x2="64.67400360107422"
      y2="-0.24300000071525574">
      <stop offset="5%" stop-color="rgb(68,110,255)"></stop>
      <stop offset="28%" stop-color="rgb(57,130,255)"></stop>
      <stop offset="50%" stop-color="rgb(46,150,255)"></stop>
      <stop offset="72%" stop-color="rgb(111,173,255)"></stop>
      <stop offset="95%" stop-color="rgb(177,197,255)"></stop>
    </linearGradient>
    <linearGradient id="__lottie_element_28" spreadMethod="pad" gradientUnits="userSpaceOnUse"
      x1="-64.05400085449219" y1="0.1809999942779541" x2="64.67400360107422"
      y2="-0.24300000071525574">
      <stop offset="5%" stop-color="rgb(68,110,255)"></stop>
      <stop offset="28%" stop-color="rgb(57,130,255)"></stop>
      <stop offset="50%" stop-color="rgb(46,150,255)"></stop>
      <stop offset="72%" stop-color="rgb(111,173,255)"></stop>
      <stop offset="95%" stop-color="rgb(177,197,255)"></stop>
    </linearGradient>
    <linearGradient id="__lottie_element_32" spreadMethod="pad" gradientUnits="userSpaceOnUse"
      x1="-64.05400085449219" y1="0.1809999942779541" x2="64.67400360107422"
      y2="-0.24300000071525574">
      <stop offset="5%" stop-color="rgb(68,110,255)"></stop>
      <stop offset="28%" stop-color="rgb(57,130,255)"></stop>
      <stop offset="50%" stop-color="rgb(46,150,255)"></stop>
      <stop offset="72%" stop-color="rgb(111,173,255)"></stop>
      <stop offset="95%" stop-color="rgb(177,197,255)"></stop>
    </linearGradient>
    <linearGradient id="__lottie_element_36" spreadMethod="pad" gradientUnits="userSpaceOnUse"
      x1="-33.14899826049805" y1="0" x2="96.81700134277344" y2="0">
      <stop offset="5%" stop-color="rgb(68,110,255)"></stop>
      <stop offset="28%" stop-color="rgb(57,130,255)"></stop>
      <stop offset="50%" stop-color="rgb(46,150,255)"></stop>
      <stop offset="72%" stop-color="rgb(111,173,255)"></stop>
      <stop offset="95%" stop-color="rgb(177,197,255)"></stop>
    </linearGradient>
    <linearGradient id="__lottie_element_40" spreadMethod="pad" gradientUnits="userSpaceOnUse"
      x1="-96.26200103759766" y1="0.1809999942779541" x2="33.111000061035156"
      y2="-0.1850000023841858">
      <stop offset="5%" stop-color="rgb(68,110,255)"></stop>
      <stop offset="28%" stop-color="rgb(57,130,255)"></stop>
      <stop offset="50%" stop-color="rgb(46,150,255)"></stop>
      <stop offset="72%" stop-color="rgb(111,173,255)"></stop>
      <stop offset="95%" stop-color="rgb(177,197,255)"></stop>
    </linearGradient>
    <linearGradient id="__lottie_element_44" spreadMethod="pad" gradientUnits="userSpaceOnUse"
      x1="-64.55400085449219" y1="0" x2="64.67400360107422" y2="0">
      <stop offset="5%" stop-color="rgb(68,110,255)"></stop>
      <stop offset="28%" stop-color="rgb(57,130,255)"></stop>
      <stop offset="50%" stop-color="rgb(46,150,255)"></stop>
      <stop offset="72%" stop-color="rgb(111,173,255)"></stop>
      <stop offset="95%" stop-color="rgb(177,197,255)"></stop>
    </linearGradient>
    <linearGradient id="__lottie_element_48" spreadMethod="pad" gradientUnits="userSpaceOnUse"
      x1="-42.13999938964844" y1="0.1809999942779541" x2="86.78700256347656"
      y2="-0.24300000071525574">
      <stop offset="5%" stop-color="rgb(68,110,255)"></stop>
      <stop offset="28%" stop-color="rgb(57,130,255)"></stop>
      <stop offset="50%" stop-color="rgb(46,150,255)"></stop>
      <stop offset="72%" stop-color="rgb(111,173,255)"></stop>
      <stop offset="95%" stop-color="rgb(177,197,255)"></stop>
    </linearGradient>
    <linearGradient id="__lottie_element_49" spreadMethod="pad" gradientUnits="userSpaceOnUse"
      x1="-86.447998046875" y1="0.1809999942779541" x2="43.10100173950195" y2="-0.24300000071525574">
      <stop offset="5%" stop-color="rgb(68,110,255)"></stop>
      <stop offset="28%" stop-color="rgb(57,130,255)"></stop>
      <stop offset="50%" stop-color="rgb(46,150,255)"></stop>
      <stop offset="72%" stop-color="rgb(111,173,255)"></stop>
      <stop offset="95%" stop-color="rgb(177,197,255)"></stop>
    </linearGradient>
  </defs>
  <g clip-path="url(#__lottie_element_2)">
    <g transform="matrix(1,0,0,1,31.886001586914062,32.18299865722656)" opacity="1"
      style="display: block;">
      <g opacity="1" transform="matrix(1,0,0,1,10.588000297546387,10.588000297546387)">
        <path fill="url(#__lottie_element_48)" fill-opacity="1"
          d=" M9.630999565124512,10.338000297546387 C9.630999565124512,10.338000297546387 10.338000297546387,9.630999565124512 10.338000297546387,9.630999565124512 C10.338000297546387,9.630999565124512 -9.630999565124512,-10.338000297546387 -9.630999565124512,-10.338000297546387 C-9.630999565124512,-10.338000297546387 -10.338000297546387,-9.630999565124512 -10.338000297546387,-9.630999565124512 C-10.338000297546387,-9.630999565124512 9.630999565124512,10.338000297546387 9.630999565124512,10.338000297546387z"></path>
      </g>
      <g opacity="1" transform="matrix(1,0,0,1,54.638999938964844,54.04499816894531)">
        <path fill="url(#__lottie_element_49)" fill-opacity="1"
          d=" M-9.630999565124512,-10.338000297546387 C-9.630999565124512,-10.338000297546387 -10.338000297546387,-9.630999565124512 -10.338000297546387,-9.630999565124512 C-10.338000297546387,-9.630999565124512 9.630999565124512,10.338000297546387 9.630999565124512,10.338000297546387 C9.630999565124512,10.338000297546387 10.338000297546387,9.630999565124512 10.338000297546387,9.630999565124512 C10.338000297546387,9.630999565124512 -9.630999565124512,-10.338000297546387 -9.630999565124512,-10.338000297546387z"></path>
      </g>
    </g>
    <g transform="matrix(1,0,0,1,18.74700164794922,18.74700164794922)" opacity="1"
      style="display: block;">
      <g opacity="1" transform="matrix(1,0,0,1,45.75299835205078,45.75299835205078)">
        <path fill="url(#__lottie_element_44)" fill-opacity="1"
          d=" M0,-45.50299835205078 C-25.131000518798828,-45.50299835205078 -45.50299835205078,-25.131000518798828 -45.50299835205078,0 C-45.50299835205078,25.131000518798828 -25.131000518798828,45.50299835205078 0,45.50299835205078 C25.131000518798828,45.50299835205078 45.50299835205078,25.131000518798828 45.50299835205078,0 C45.50299835205078,-25.131000518798828 25.131000518798828,-45.50299835205078 0,-45.50299835205078z M0,44.49700164794922 C-24.575000762939453,44.49700164794922 -44.49700164794922,24.575000762939453 -44.49700164794922,0 C-44.49700164794922,-24.575000762939453 -24.575000762939453,-44.49700164794922 0,-44.49700164794922 C24.575000762939453,-44.49700164794922 44.49700164794922,-24.575000762939453 44.49700164794922,0 C44.49700164794922,24.575000762939453 24.575000762939453,44.49700164794922 0,44.49700164794922z"></path>
      </g>
    </g>
    <g transform="matrix(1,0,0,1,95.75,15.75)" opacity="1" style="display: block;">
      <g opacity="1" transform="matrix(1,0,0,1,0.75,48.75)">
        <path fill="url(#__lottie_element_40)" fill-opacity="1"
          d=" M-0.5,48.5 C-0.5,48.5 0.5,48.5 0.5,48.5 C0.5,48.5 0.5,-48.5 0.5,-48.5 C0.5,-48.5 -0.5,-48.5 -0.5,-48.5 C-0.5,-48.5 -0.5,48.5 -0.5,48.5z"></path>
      </g>
    </g>
    <g transform="matrix(1,0,0,1,31.75,15.75)" opacity="1" style="display: block;">
      <g opacity="1" transform="matrix(1,0,0,1,0.75,48.75)">
        <path fill="url(#__lottie_element_36)" fill-opacity="1"
          d=" M-0.5,48.5 C-0.5,48.5 0.5,48.5 0.5,48.5 C0.5,48.5 0.5,-48.5 0.5,-48.5 C0.5,-48.5 -0.5,-48.5 -0.5,-48.5 C-0.5,-48.5 -0.5,48.5 -0.5,48.5z"></path>
      </g>
    </g>
    <g transform="matrix(1,0,0,1,15.75,95.75)" opacity="1" style="display: block;">
      <g opacity="1" transform="matrix(1,0,0,1,48.75,0.75)">
        <path fill="url(#__lottie_element_32)" fill-opacity="1"
          d=" M-48.5,0.5 C-48.5,0.5 48.5,0.5 48.5,0.5 C48.5,0.5 48.5,-0.5 48.5,-0.5 C48.5,-0.5 -48.5,-0.5 -48.5,-0.5 C-48.5,-0.5 -48.5,0.5 -48.5,0.5z"></path>
      </g>
    </g>
    <g transform="matrix(1,0,0,1,63.75,-0.25)" opacity="1" style="display: block;">
      <g opacity="1" transform="matrix(1,0,0,1,0.75,112.71600341796875)">
        <path fill="url(#__lottie_element_27)" fill-opacity="1"
          d=" M-0.5,16.534000396728516 C-0.5,16.534000396728516 0.5,16.534000396728516 0.5,16.534000396728516 C0.5,16.534000396728516 0.5,-16.534000396728516 0.5,-16.534000396728516 C0.5,-16.534000396728516 -0.5,-16.534000396728516 -0.5,-16.534000396728516 C-0.5,-16.534000396728516 -0.5,16.534000396728516 -0.5,16.534000396728516z"></path>
      </g>
      <g opacity="1" transform="matrix(1,0,0,1,0.75,16.784000396728516)">
        <path fill="url(#__lottie_element_28)" fill-opacity="1"
          d=" M-0.5,16.534000396728516 C-0.5,16.534000396728516 0.5,16.534000396728516 0.5,16.534000396728516 C0.5,16.534000396728516 0.5,-16.534000396728516 0.5,-16.534000396728516 C0.5,-16.534000396728516 -0.5,-16.534000396728516 -0.5,-16.534000396728516 C-0.5,-16.534000396728516 -0.5,16.534000396728516 -0.5,16.534000396728516z"></path>
      </g>
    </g>
    <g transform="matrix(1,0,0,1,15.75,31.75)" opacity="1" style="display: block;">
      <g opacity="1" transform="matrix(1,0,0,1,48.75,0.75)">
        <path fill="url(#__lottie_element_23)" fill-opacity="1"
          d=" M-48.5,0.5 C-48.5,0.5 48.5,0.5 48.5,0.5 C48.5,0.5 48.5,-0.5 48.5,-0.5 C48.5,-0.5 -48.5,-0.5 -48.5,-0.5 C-48.5,-0.5 -48.5,0.5 -48.5,0.5z"></path>
      </g>
    </g>
    <g transform="matrix(1,0,0,1,-0.25,63.75)" opacity="1" style="display: block;">
      <g opacity="1" transform="matrix(1,0,0,1,16.75,0.75)">
        <path fill="url(#__lottie_element_18)" fill-opacity="1"
          d=" M-16.5,0.5 C-16.5,0.5 16.5,0.5 16.5,0.5 C16.5,0.5 16.5,-0.5 16.5,-0.5 C16.5,-0.5 -16.5,-0.5 -16.5,-0.5 C-16.5,-0.5 -16.5,0.5 -16.5,0.5z"></path>
      </g>
      <g opacity="1" transform="matrix(1,0,0,1,112.7490005493164,0.75)">
        <path fill="url(#__lottie_element_19)" fill-opacity="1"
          d=" M-16.499000549316406,0.5 C-16.499000549316406,0.5 16.499000549316406,0.5 16.499000549316406,0.5 C16.499000549316406,0.5 16.499000549316406,-0.5 16.499000549316406,-0.5 C16.499000549316406,-0.5 -16.499000549316406,-0.5 -16.499000549316406,-0.5 C-16.499000549316406,-0.5 -16.499000549316406,0.5 -16.499000549316406,0.5z"></path>
      </g>
    </g>
    <g transform="matrix(1,0,0,1,19.58700180053711,19.492000579833984)" opacity="1"
      style="display: block;">
      <g opacity="1" transform="matrix(1,0,0,1,44.856998443603516,44.856998443603516)">
        <path fill="url(#__lottie_element_14)" fill-opacity="1"
          d=" M44.606998443603516,-0.006000000052154064 C42.327999114990234,-0.13300000131130219 40.2140007019043,-0.2800000011920929 38.608001708984375,-0.4950000047683716 C38.608001708984375,-0.4950000047683716 38.606998443603516,-0.5080000162124634 38.606998443603516,-0.5080000162124634 C36.54499816894531,-0.8109999895095825 34.52799987792969,-1.2549999952316284 32.555999755859375,-1.8350000381469727 C32.555999755859375,-1.8350000381469727 32.279998779296875,-1.9190000295639038 32.018001556396484,-1.9989999532699585 C31.7810001373291,-2.072000026702881 31.555999755859375,-2.1419999599456787 31.555999755859375,-2.1419999599456787 C30.288999557495117,-2.5490000247955322 29.040000915527344,-3.013000011444092 27.81100082397461,-3.5350000858306885 C22.274999618530273,-5.961999893188477 17.458999633789062,-9.222000122070312 13.36400032043457,-13.317999839782715 C9.269000053405762,-17.413000106811523 6.008999824523926,-22.22800064086914 3.5820000171661377,-27.763999938964844 C3.059999942779541,-28.993000030517578 2.5959999561309814,-30.240999221801758 2.188999891281128,-31.507999420166016 C2.188999891281128,-31.507999420166016 1.8819999694824219,-32.507999420166016 1.8819999694824219,-32.507999420166016 C1.3009999990463257,-34.47999954223633 0.859000027179718,-36.49800109863281 0.5559999942779541,-38.560001373291016 C0.5559999942779541,-38.560001373291016 0.5,-38.566001892089844 0.5,-38.566001892089844 C0.28200000524520874,-40.17599868774414 0.13300000131130219,-42.308998107910156 0.006000000052154064,-44.606998443603516 C-0.12300000339746475,-42.37099838256836 -0.2849999964237213,-40.2869987487793 -0.5080000162124634,-38.49300003051758 C-0.5080000162124634,-38.49300003051758 -0.47600001096725464,-38.49700164794922 -0.47600001096725464,-38.49700164794922 C-0.7889999747276306,-36.457000732421875 -1.2369999885559082,-34.459999084472656 -1.8300000429153442,-32.507999420166016 C-1.8300000429153442,-32.507999420166016 -2.1470000743865967,-31.507999420166016 -2.1470000743865967,-31.507999420166016 C-2.565999984741211,-30.240999221801758 -3.0450000762939453,-28.993000030517578 -3.5840001106262207,-27.763999938964844 C-5.895999908447266,-22.320999145507812 -9.050000190734863,-17.575000762939453 -13.04699993133545,-13.524999618530273 C-13.04699993133545,-13.524999618530273 -13.756999969482422,-12.819999694824219 -13.756999969482422,-12.819999694824219 C-17.742000579833984,-8.956999778747559 -22.388999938964844,-5.86299991607666 -27.698999404907227,-3.5350000858306885 C-28.929000854492188,-3.013000011444092 -30.177000045776367,-2.5490000247955322 -31.444000244140625,-2.1419999599456787 C-31.444000244140625,-2.1419999599456787 -32.444000244140625,-1.8350000381469727 -32.444000244140625,-1.8350000381469727 C-34.41699981689453,-1.2549999952316284 -36.433998107910156,-0.8109999895095825 -38.494998931884766,-0.5080000162124634 C-38.494998931884766,-0.5080000162124634 -38.54899978637695,-0.00800000037997961 -38.54899978637695,-0.00800000037997961 C-38.54899978637695,-0.00800000037997961 -38.494998931884766,-0.5080000162124634 -38.494998931884766,-0.5080000162124634 C-40.112998962402344,-0.2849999964237213 -42.27799987792969,-0.13600000739097595 -44.606998443603516,-0.006000000052154064 C-42.38600158691406,0.12200000137090683 -40.316001892089844,0.28200000524520874 -38.529998779296875,0.503000020980835 C-36.191001892089844,0.8569999933242798 -33.90800094604492,1.3949999809265137 -31.68199920654297,2.117000102996826 C-30.333999633789062,2.553999900817871 -29.006000518798828,3.059000015258789 -27.698999404907227,3.631999969482422 C-22.163999557495117,5.982999801635742 -17.347999572753906,9.206000328063965 -13.253000259399414,13.300999641418457 C-9.157999992370605,17.395999908447266 -5.934999942779541,22.211000442504883 -3.5840001106262207,27.746999740600586 C-3.0450000762939453,28.976999282836914 -2.565999984741211,30.225000381469727 -2.1470000743865967,31.492000579833984 C-2.1470000743865967,31.492000579833984 -1.8300000429153442,32.492000579833984 -1.8300000429153442,32.492000579833984 C-1.2350000143051147,34.45000076293945 -0.7860000133514404,36.45100021362305 -0.4729999899864197,38.49700164794922 C-0.4729999899864197,38.49700164794922 -0.5080000162124634,38.49300003051758 -0.5080000162124634,38.49300003051758 C-0.2849999964237213,40.2869987487793 -0.12300000339746475,42.37099838256836 0.006000000052154064,44.606998443603516 C0.1340000033378601,42.30099868774414 0.28299999237060547,40.1609992980957 0.5019999742507935,38.54899978637695 C0.5019999742507935,38.54899978637695 0.5559999942779541,38.54199981689453 0.5559999942779541,38.54199981689453 C0.859000027179718,36.47999954223633 1.3009999990463257,34.46500015258789 1.8819999694824219,32.492000579833984 C1.8819999694824219,32.492000579833984 2.188999891281128,31.492000579833984 2.188999891281128,31.492000579833984 C2.5959999561309814,30.225000381469727 3.059999942779541,28.976999282836914 3.5820000171661377,27.746999740600586 C5.909999847412109,22.437000274658203 9.005000114440918,17.788999557495117 12.868000030517578,13.805000305175781 C12.868000030517578,13.805000305175781 13.571999549865723,13.093999862670898 13.571999549865723,13.093999862670898 C17.621999740600586,9.097000122070312 22.368000030517578,5.942999839782715 27.81100082397461,3.631999969482422 C29.040000915527344,3.0929999351501465 30.288999557495117,2.614000082015991 31.555999755859375,2.194999933242798 C31.555999755859375,2.194999933242798 32.555999755859375,1.8760000467300415 32.555999755859375,1.8760000467300415 C34.5620002746582,1.2669999599456787 36.6150016784668,0.8059999942779541 38.7140007019043,0.492000013589859 C38.7140007019043,0.492000013589859 38.7130012512207,0.48399999737739563 38.7130012512207,0.48399999737739563 C40.45800018310547,0.27399998903274536 42.45899963378906,0.11800000071525574 44.606998443603516,-0.006000000052154064z M10.53600025177002,10.631999969482422 C6.119999885559082,15.04800033569336 2.609999895095825,20.22100067138672 0,26.114999771118164 C-2.5350000858306885,20.219999313354492 -6.008999824523926,15.04699993133545 -10.425000190734863,10.631999969482422 C-14.84000015258789,6.2170000076293945 -20.01300048828125,2.742000102996826 -25.908000946044922,0.20600000023841858 C-20.01300048828125,-2.4030001163482666 -14.840999603271484,-5.913000106811523 -10.425000190734863,-10.329000473022461 C-6.008999824523926,-14.744000434875488 -2.5350000858306885,-19.91699981689453 0,-25.812000274658203 C2.609999895095825,-19.91699981689453 6.119999885559082,-14.744999885559082 10.53600025177002,-10.329000473022461 C14.95199966430664,-5.913000106811523 20.125,-2.4030001163482666 26.018999099731445,0.20600000023841858 C20.124000549316406,2.742000102996826 14.951000213623047,6.2170000076293945 10.53600025177002,10.631999969482422z"></path>
      </g>
    </g>
    <g transform="matrix(1,0,0,1,19.58700180053711,19.492000579833984)" opacity="1"
      style="display: block;">
      <g opacity="1" transform="matrix(1,0,0,1,44.856998443603516,44.856998443603516)">
        <path fill="url(#__lottie_element_10)" fill-opacity="1"
          d=" M44.606998443603516,-0.006000000052154064 C42.327999114990234,-0.13300000131130219 40.2140007019043,-0.2800000011920929 38.608001708984375,-0.4950000047683716 C38.608001708984375,-0.4950000047683716 38.606998443603516,-0.5080000162124634 38.606998443603516,-0.5080000162124634 C36.54499816894531,-0.8109999895095825 34.52799987792969,-1.2549999952316284 32.555999755859375,-1.8350000381469727 C32.555999755859375,-1.8350000381469727 32.279998779296875,-1.9190000295639038 32.018001556396484,-1.9989999532699585 C31.7810001373291,-2.072000026702881 31.555999755859375,-2.1419999599456787 31.555999755859375,-2.1419999599456787 C30.288999557495117,-2.5490000247955322 29.040000915527344,-3.013000011444092 27.81100082397461,-3.5350000858306885 C22.274999618530273,-5.961999893188477 17.458999633789062,-9.222000122070312 13.36400032043457,-13.317999839782715 C9.269000053405762,-17.413000106811523 6.008999824523926,-22.22800064086914 3.5820000171661377,-27.763999938964844 C3.059999942779541,-28.993000030517578 2.5959999561309814,-30.240999221801758 2.188999891281128,-31.507999420166016 C2.188999891281128,-31.507999420166016 1.8819999694824219,-32.507999420166016 1.8819999694824219,-32.507999420166016 C1.3009999990463257,-34.47999954223633 0.859000027179718,-36.49800109863281 0.5559999942779541,-38.560001373291016 C0.5559999942779541,-38.560001373291016 0.5,-38.566001892089844 0.5,-38.566001892089844 C0.28200000524520874,-40.17599868774414 0.13300000131130219,-42.308998107910156 0.006000000052154064,-44.606998443603516 C-0.12300000339746475,-42.37099838256836 -0.2849999964237213,-40.2869987487793 -0.5080000162124634,-38.49300003051758 C-0.5080000162124634,-38.49300003051758 -0.47600001096725464,-38.49700164794922 -0.47600001096725464,-38.49700164794922 C-0.7889999747276306,-36.457000732421875 -1.2369999885559082,-34.459999084472656 -1.8300000429153442,-32.507999420166016 C-1.8300000429153442,-32.507999420166016 -2.1470000743865967,-31.507999420166016 -2.1470000743865967,-31.507999420166016 C-2.565999984741211,-30.240999221801758 -3.0450000762939453,-28.993000030517578 -3.5840001106262207,-27.763999938964844 C-5.895999908447266,-22.320999145507812 -9.050000190734863,-17.575000762939453 -13.04699993133545,-13.524999618530273 C-13.04699993133545,-13.524999618530273 -13.756999969482422,-12.819999694824219 -13.756999969482422,-12.819999694824219 C-17.742000579833984,-8.956999778747559 -22.388999938964844,-5.86299991607666 -27.698999404907227,-3.5350000858306885 C-28.929000854492188,-3.013000011444092 -30.177000045776367,-2.5490000247955322 -31.444000244140625,-2.1419999599456787 C-31.444000244140625,-2.1419999599456787 -32.444000244140625,-1.8350000381469727 -32.444000244140625,-1.8350000381469727 C-34.41699981689453,-1.2549999952316284 -36.433998107910156,-0.8109999895095825 -38.494998931884766,-0.5080000162124634 C-38.494998931884766,-0.5080000162124634 -38.54899978637695,-0.00800000037997961 -38.54899978637695,-0.00800000037997961 C-38.54899978637695,-0.00800000037997961 -38.494998931884766,-0.5080000162124634 -38.494998931884766,-0.5080000162124634 C-40.112998962402344,-0.2849999964237213 -42.27799987792969,-0.13600000739097595 -44.606998443603516,-0.006000000052154064 C-42.38600158691406,0.12200000137090683 -40.316001892089844,0.28200000524520874 -38.529998779296875,0.503000020980835 C-36.191001892089844,0.8569999933242798 -33.90800094604492,1.3949999809265137 -31.68199920654297,2.117000102996826 C-30.333999633789062,2.553999900817871 -29.006000518798828,3.059000015258789 -27.698999404907227,3.631999969482422 C-22.163999557495117,5.982999801635742 -17.347999572753906,9.206000328063965 -13.253000259399414,13.300999641418457 C-9.157999992370605,17.395999908447266 -5.934999942779541,22.211000442504883 -3.5840001106262207,27.746999740600586 C-3.0450000762939453,28.976999282836914 -2.565999984741211,30.225000381469727 -2.1470000743865967,31.492000579833984 C-2.1470000743865967,31.492000579833984 -1.8300000429153442,32.492000579833984 -1.8300000429153442,32.492000579833984 C-1.2350000143051147,34.45000076293945 -0.7860000133514404,36.45100021362305 -0.4729999899864197,38.49700164794922 C-0.4729999899864197,38.49700164794922 -0.5080000162124634,38.49300003051758 -0.5080000162124634,38.49300003051758 C-0.2849999964237213,40.2869987487793 -0.12300000339746475,42.37099838256836 0.006000000052154064,44.606998443603516 C0.1340000033378601,42.30099868774414 0.28299999237060547,40.1609992980957 0.5019999742507935,38.54899978637695 C0.5019999742507935,38.54899978637695 0.5559999942779541,38.54199981689453 0.5559999942779541,38.54199981689453 C0.859000027179718,36.47999954223633 1.3009999990463257,34.46500015258789 1.8819999694824219,32.492000579833984 C1.8819999694824219,32.492000579833984 2.188999891281128,31.492000579833984 2.188999891281128,31.492000579833984 C2.5959999561309814,30.225000381469727 3.059999942779541,28.976999282836914 3.5820000171661377,27.746999740600586 C5.909999847412109,22.437000274658203 9.005000114440918,17.788999557495117 12.868000030517578,13.805000305175781 C12.868000030517578,13.805000305175781 13.571999549865723,13.093999862670898 13.571999549865723,13.093999862670898 C17.621999740600586,9.097000122070312 22.368000030517578,5.942999839782715 27.81100082397461,3.631999969482422 C29.040000915527344,3.0929999351501465 30.288999557495117,2.614000082015991 31.555999755859375,2.194999933242798 C31.555999755859375,2.194999933242798 32.555999755859375,1.8760000467300415 32.555999755859375,1.8760000467300415 C34.5620002746582,1.2669999599456787 36.6150016784668,0.8059999942779541 38.7140007019043,0.492000013589859 C38.7140007019043,0.492000013589859 38.7130012512207,0.48399999737739563 38.7130012512207,0.48399999737739563 C40.45800018310547,0.27399998903274536 42.45899963378906,0.11800000071525574 44.606998443603516,-0.006000000052154064z M10.53600025177002,10.631999969482422 C6.119999885559082,15.04800033569336 2.609999895095825,20.22100067138672 0,26.114999771118164 C-2.5350000858306885,20.219999313354492 -6.008999824523926,15.04699993133545 -10.425000190734863,10.631999969482422 C-14.84000015258789,6.2170000076293945 -20.01300048828125,2.742000102996826 -25.908000946044922,0.20600000023841858 C-20.01300048828125,-2.4030001163482666 -14.840999603271484,-5.913000106811523 -10.425000190734863,-10.329000473022461 C-6.008999824523926,-14.744000434875488 -2.5350000858306885,-19.91699981689453 0,-25.812000274658203 C2.609999895095825,-19.91699981689453 6.119999885559082,-14.744999885559082 10.53600025177002,-10.329000473022461 C14.95199966430664,-5.913000106811523 20.125,-2.4030001163482666 26.018999099731445,0.20600000023841858 C20.124000549316406,2.742000102996826 14.951000213623047,6.2170000076293945 10.53600025177002,10.631999969482422z"></path>
      </g>
    </g>
    <g transform="matrix(1,0,0,1,18.74700164794922,18.74700164794922)" opacity="1"
      style="display: block;">
      <g opacity="1" transform="matrix(1,0,0,1,45.75299835205078,45.75299835205078)">
        <path fill="url(#__lottie_element_6)" fill-opacity="1"
          d=" M0,-45.50299835205078 C-25.131000518798828,-45.50299835205078 -45.50299835205078,-25.131000518798828 -45.50299835205078,0 C-45.50299835205078,25.131000518798828 -25.131000518798828,45.50299835205078 0,45.50299835205078 C25.131000518798828,45.50299835205078 45.50299835205078,25.131000518798828 45.50299835205078,0 C45.50299835205078,-25.131000518798828 25.131000518798828,-45.50299835205078 0,-45.50299835205078z M0,44.49700164794922 C-24.575000762939453,44.49700164794922 -44.49700164794922,24.575000762939453 -44.49700164794922,0 C-44.49700164794922,-24.575000762939453 -24.575000762939453,-44.49700164794922 0,-44.49700164794922 C24.575000762939453,-44.49700164794922 44.49700164794922,-24.575000762939453 44.49700164794922,0 C44.49700164794922,24.575000762939453 24.575000762939453,44.49700164794922 0,44.49700164794922z"></path>
      </g>
    </g>
  </g>
</svg>