<svg width="25" height="24" viewBox="0 0 25 24" xmlns="http://www.w3.org/2000/svg"
  xmlns:xlink="http://www.w3.org/1999/xlink">
  <defs>
    <linearGradient x1="76.7202373%" y1="41.6070847%" x2="18.306123%" y2="65.5065085%"
      id="linearGradient-9_1k7ha4jv-1">
      <stop stop-color="#797beb" offset="0"></stop>
      <stop stop-color="#373080" offset="100%"></stop>
    </linearGradient>
  </defs>
  <g id="Symbols" stroke="none" stroke-width="1" fill="none" fill-rule="evenodd">
    <g id="_编组-7" fill="url(#linearGradient-9_1k7ha4jv-1)">
      <path
        d="M12.2746711.0C12.5125388.0 12.7434104.12583746 12.8693403.33556656l1.3852293 2.3769298h6.1425827C20.63502 2.71249636 20.8658915 2.83833382 20.9918215 3.04806292l1.7420308 2.97815322C22.8597822 6.23594524 22.8597822 6.5016021 22.7338523 6.7113312L22.6988718 6.76725896C22.6708873 6.80920478 22.6359068 6.8511506 22.5939301 6.88610545L21.2156969 9.24905331l3.050303 5.24322749L24.3429571 14.6041363C24.4339065 14.8138654 24.4548948 15.0795223 24.3919298 15.2682785l-1.6021086 2.7404602C22.6638912 18.2184678 22.4400158 18.3443053 22.195152 18.3443053L19.4176972 18.3582872 16.353402 23.6504515C16.227472 23.8601806 16.0035966 23.9860181 15.7587328 23.9860181L12.2886633 24H12.2396906C12.0158151 23.9860181 11.7989358 23.8601806 11.6869981 23.6644334l-1.490171-2.551704H4.13120166C4.0822289 21.1267113 4.04025225 21.1267113 3.9912795 21.1267113 3.75341183 21.1267113 3.52254028 21.0008739 3.39661034 20.7911448L1.79450165 18.0506845C1.66857171 17.8479464 1.66857171 17.5892805 1.79450165 17.3725604l1.37823324-2.3909117L.0944474553 9.69647539c-.1259299404-.20273813-.1259299404-.46140402.0-.678124089999999L1.80849387 6.02621614c.11193772-.2097291.34280928-.33556656.59466916-.33556656C2.466128 5.67666764 2.51510075 5.69064958 2.56407351 5.70463152H5.40449327L8.44080406.46140402C8.45479628.4194582 8.46179238.38450335 8.48278071.35653947L8.49677292.33556656C8.62270286.12583746 8.84657831.0 9.09144209.0H12.2816672 12.2746711zM9.04246933.72706088 5.74730256 6.41071949H2.3751786L8.93752771 17.6871541H5.59338819l-1.61610091 2.789397H10.5606247l1.6790659 2.8942616 6.5623491-11.3043985 1.6790659 2.8802797L23.7203035 14.9327119 20.4181406 9.24905331l1.6650737-2.8662977L9.00049268 6.39673755 10.6795586 3.51645791 9.04946544.72706088H9.04246933zM16.1435187 9.82930382 12.2187023 16.5755899 8.2938858 9.82930382h7.8496329z"
        id="_形状"></path>
    </g>
  </g>
</svg>